[img] http://img17.imageshack.us/img17/4997/854lu.jpg[/img]

With: Tom Cruise, Raymond J. Barry and Kyra Sedgwick

Ron Kovic werd geboren op 4 juli 1946, de Amerikaanse nationale feestdag. Hij groeide op in een patriottische familie. Op school blinkt hij uit in sport en op 18-jarige leeftijd neemt hij vrijwillig dienst bij het marinekorps, wetend dat hij als getrainde vechtjas meteen naar Vietnam zal gestuurd worden. Zijn jeugdvriendin Donna gaat naar de universiteit en neemt er actief deel aan het anti-oorlogsprotest. In Vietnam geraakt Kovic zwaar gewond door een kogel in de ruggengraat en vertellen de dokters hem dat hij nooit meer zal kunnen lopen. Ron aanvaardt het oordeel niet en oefent dwangmatig zijn onderste ledematen. Maar langzaam begint Kovic zich vragen te stellen over de zin van de Vietnamese oorlog en raakt betrokken bij de veteranenbeweging die de terugtrekking van de Amerikaanse soldaten in Vietnam wil afdwingen.

The biography of Ron Kovic. Paralyzed in the Vietnam war, he becomes an anti-war and pro-human rights political activist after feeling betrayed by the country he fought for. 

------------------ Dutch Friends ------------------
You can find my Friends at: http://www.Film-Test.nl 
------ They got my dutchs subs ---- and more ------

General:

Complete name                    : Born on the Fourth of July\Born on the Fourth of July.avi
Format                           : AVI
Format/Info                      : Audio Video Interleave
File size                        : 2.06 GiB
Duration                         : 2h 18mn
Overall bit rate                 : 2 129 Kbps

Video:

Format                           : MPEG-4 Visual
Format profile                   : Simple@L3
Format settings, BVOP            : No
Format settings, QPel            : No
Format settings, GMC             : No warppoints
Format settings, Matrix          : Default (H.263)
Codec ID                         : XVID
Codec ID/Hint                    : XviD
Duration                         : 2h 18mn
Bit rate                         : 1 735 Kbps
Width                            : 720 pixels
Height                           : 328 pixels
Display aspect ratio             : 2.2:1
Frame rate                       : 25.000 fps
Color space                      : YUV
Chroma subsampling               : 4:2:0
Bit depth                        : 8 bits
Scan type                        : Progressive
Bits/(Pixel*Frame)               : 0.294
Stream size                      : 1.67 GiB (81%)
Writing library                  : XviD 1.1.2 (UTC 2006-11-01)

Audio:

Format                           : AC-3
Format/Info                      : Audio Coding 3
Mode extension                   : CM (complete main)
Codec ID                         : 2000
Duration                         : 2h 18mn
Bit rate mode                    : Constant
Bit rate                         : 384 Kbps
Channel(s)                       : 6 channels
Channel positions                : Front: L C R, Side: L R, LFE
Sampling rate                    : 48.0 KHz
Bit depth                        : 16 bits
Stream size                      : 380 MiB (18%)
Alignment                        : Aligned on interleaves
Interleave, duration             : 32 ms (0.80 video frame)
Interleave, preload duration     : 352 ms

